<svg width="141" height="140" viewBox="0 0 141 140" fill="none" xmlns="http://www.w3.org/2000/svg">
<path d="M98.0871 137.766C98.9784 137.494 99.7812 136.99 100.413 136.305C100.914 135.302 101.309 134.25 101.59 133.165C101.719 132.612 101.804 132.051 101.846 131.485C101.942 130.895 102.006 130.299 102.036 129.702C102.117 128.878 102.117 128.049 102.036 127.226C101.813 124.697 101.028 122.25 99.7389 120.063C97.527 116.456 94.2966 113.584 90.4546 111.809C86.5293 109.895 82.2047 108.942 77.8382 109.029C69.1709 109.228 60.3328 113.773 56.5355 121.106C54.6911 124.768 54.0278 128.911 54.6369 132.965C54.9068 134.49 55.3661 135.975 56.0039 137.387C55.9184 137.178 58.3012 136.58 58.4911 136.523C59.1059 136.365 59.7113 136.171 60.3043 135.944C61.1397 135.603 61.8042 134.996 62.6301 134.664C63.1769 134.395 63.7747 134.246 64.3836 134.227C64.9925 134.207 65.5986 134.317 66.1616 134.55C67.1109 135.072 67.595 135.745 68.7152 135.878C69.4561 135.867 70.1947 135.963 70.9081 136.163C71.4777 136.409 71.9239 136.941 72.5315 137.064C73.2157 137.099 73.8898 136.887 74.4301 136.466C75.3212 136.052 76.2955 135.848 77.2781 135.869C78.0532 135.78 78.8345 135.758 79.6134 135.802C80.3159 135.859 80.6481 136.286 81.2462 136.628C82.4802 137.33 83.8916 137.66 85.3093 137.576C85.9002 137.49 86.4993 137.474 87.094 137.529C88.1288 137.719 88.9926 138.886 89.8755 139.369C91.0222 139.979 92.3503 140.154 93.6158 139.863C94.8655 139.455 96.0584 138.891 97.1663 138.183C97.4605 138.032 97.7738 137.899 98.0871 137.766Z" fill="#F87C56"/>
<path d="M1.81693 67.294C1.88338 67.3984 1.94034 67.5217 2.01628 67.6355C2.21791 67.9978 2.48508 68.3195 2.80422 68.5843C3.07952 68.812 3.40229 68.9733 3.69657 69.182C3.89964 69.3124 4.07935 69.4759 4.22819 69.6658C4.38008 69.8556 4.40856 70.1117 4.66488 70.1971C5.28128 70.6117 5.83992 71.1062 6.32618 71.6677C6.75708 72.0633 7.25123 72.3839 7.78813 72.6164C8.86386 70.9055 10.0465 69.264 11.3291 67.702C14.481 63.8836 18.3228 60.691 22.6544 58.2905C24.8857 57.0825 27.2452 56.1278 29.6889 55.4443C32.0884 54.8115 34.5421 54.4049 37.0176 54.2299C41.525 54.0359 46.0401 54.1278 50.5359 54.505C54.6165 54.8285 58.7177 54.7904 62.7916 54.3912C70.9652 53.6037 79.3192 51.4027 88.2428 50.2642C92.8143 49.6273 97.4356 49.4208 102.046 49.6475C106.815 49.9576 111.512 50.9744 115.982 52.6645C124.979 56.0726 132.724 62.1385 138.186 70.0548C138.262 70.1592 138.319 70.2635 138.386 70.3584C138.49 69.9694 138.386 69.6563 138.614 69.2768C138.841 68.8974 139.183 68.7171 139.382 68.3281C139.507 68.0284 139.553 67.7018 139.515 67.3794C139.527 67.05 139.608 66.7269 139.753 66.4306C139.867 66.1745 140.132 65.9563 140.237 65.7096C140.332 65.0102 140.233 64.2982 139.952 63.6508C139.83 63.3721 139.762 63.0726 139.753 62.7685C139.85 62.4641 139.974 62.1689 140.123 61.8862C140.241 61.5192 140.241 61.1242 140.123 60.7572C139.848 59.9887 138.993 59.7515 138.851 58.9261C138.841 58.1063 138.523 57.3202 137.958 56.7251C137.076 56.0135 135.955 55.6056 135.509 54.4671C135.243 53.803 135.566 53.1389 135.291 52.5032C135.016 51.8676 134.531 51.5545 134.446 50.9283C134.446 50.5488 134.446 50.1693 134.446 49.7898C134.316 49.0638 134.024 48.3764 133.592 47.7785C133.43 47.4749 133.212 47.2188 133.051 46.9246C132.979 46.6354 132.934 46.34 132.918 46.0423C127.351 41.9841 121.38 38.5122 115.099 35.6821C109.619 33.2252 103.76 31.7174 97.7739 31.2231C91.9356 30.7013 85.9264 31.4982 79.8223 32.6746C67.6046 35.0465 55.0546 39.7902 41.1092 40.3215C34.2456 40.6535 26.8694 39.8755 20.1198 36.8681C18.2359 36.0304 16.4204 35.047 14.6897 33.927L14.234 33.8701C12.9467 33.8007 11.6752 34.1796 10.6361 34.9421C9.75015 35.6891 8.70935 36.2303 7.58877 36.5265C6.63946 36.6593 5.63318 36.5265 5.02562 37.4752C4.54147 38.1868 4.3611 39.1355 3.63012 39.6573C3.2504 39.9325 2.81371 40.1222 2.44348 40.4068C2.24644 40.5391 2.08408 40.7167 1.97008 40.9247C1.85609 41.1327 1.79379 41.3651 1.78845 41.6022C1.84729 41.9046 1.95299 42.1958 2.10172 42.4656C2.31057 42.9684 2.15868 43.2151 1.95932 43.661C1.8098 43.9539 1.70424 44.2672 1.64605 44.5908C1.61479 45.1057 1.74774 45.6172 2.02578 46.0518C2.26311 46.4693 2.70928 46.8013 2.90864 47.2282C3.06571 47.6098 3.10215 48.0303 3.01307 48.4331C2.86827 48.9128 2.69065 49.382 2.48145 49.8373C2.21564 50.5393 2.19665 51.2793 1.96882 51.9719C1.86667 52.2546 1.67286 52.4951 1.41821 52.655C0.791664 53.1294 1.0195 53.7461 1.26632 54.4291C1.50775 55.0671 1.58606 55.7551 1.49416 56.431C1.38024 57.0666 0.83913 57.5315 0.639773 58.1577C0.492493 58.5621 0.492493 59.0055 0.639773 59.41C0.753691 59.6756 0.953048 59.9033 1.08595 60.1595C1.29382 60.5889 1.36785 61.0708 1.29845 61.5428C1.22906 62.0147 1.01943 62.455 0.696732 62.8065C0.446389 63.0503 0.254773 63.3478 0.136364 63.6766C0.0179539 64.0053 -0.0241531 64.3566 0.0132239 64.7039C0.0930044 65.1495 0.312417 65.5581 0.639773 65.8709C0.934062 66.146 1.14291 66.4876 1.44669 66.7532C1.59968 66.9114 1.72485 67.0942 1.81693 67.294Z" fill="#F87C56"/>
<path d="M117.406 27.5134C118.773 26.688 117.206 23.5572 116.456 22.7698C115.839 22.1626 114.975 21.9633 114.349 21.4226C113.722 20.8818 113.533 20.341 113.02 19.8856C111.852 18.822 110.376 18.1575 108.805 17.9881C107.618 17.8648 106.413 18.0356 105.226 17.9217C104.63 17.8831 104.051 17.7102 103.531 17.4161C103.012 17.122 102.566 16.7143 102.226 16.2235C101.476 15.2748 100.403 14.4968 99.5965 13.5291C98.9605 12.7511 98.4763 12.1155 97.3657 12.125C96.891 12.125 96.0746 12.3716 95.7328 11.9162C95.5776 11.6476 95.4655 11.3562 95.4006 11.0529C95.2404 10.6858 95.0046 10.3567 94.7086 10.087C94.4125 9.81721 94.0628 9.61293 93.6823 9.48747C92.914 9.24787 92.1138 9.12631 91.309 9.12695C90.4968 9.15587 89.6895 8.98996 88.9547 8.64309C88.5956 8.4047 88.2559 8.13822 87.9389 7.84616C87.16 7.29933 86.3186 6.84708 85.4327 6.49895C85.0701 6.30705 84.6659 6.20673 84.2556 6.20673C83.8452 6.20673 83.4411 6.30705 83.0784 6.49895C82.3629 6.78003 81.6124 6.96198 80.8475 7.03973C79.6419 7.22948 77.9331 7.4382 76.9838 6.47049C76.8226 6.35526 76.6428 6.26861 76.4522 6.21433C75.8738 5.85345 75.2277 5.61454 74.5536 5.51227C74.1572 5.54619 73.7582 5.49109 73.3859 5.35098C73.046 5.12968 72.7604 4.83456 72.5505 4.48763C72.0284 3.79506 71.0506 3.85198 70.5854 3.12145C70.3766 2.7894 70.3861 2.36247 70.1962 2.03041C70.0554 1.82249 69.8638 1.65405 69.6394 1.54113C69.4151 1.4282 69.1656 1.37454 68.9146 1.38527C68.4024 1.40826 67.8937 1.48135 67.3957 1.60348C66.0448 1.83438 64.6554 1.64218 63.4181 1.05321C62.9007 0.714517 62.3543 0.422423 61.7852 0.180375C61.0982 -0.00105491 60.3822 -0.0461794 59.6778 0.0475517C57.7791 0.322685 56.7349 1.63194 55.3868 2.82735C54.842 3.34027 54.2683 3.82175 53.6686 4.26942C53.4288 4.49469 53.1363 4.65618 52.8178 4.73906C52.4993 4.82195 52.1651 4.82357 51.8459 4.74379C51.3692 4.5847 50.8668 4.5171 50.365 4.54456C49.5823 4.77703 48.9088 5.28186 48.4663 5.96766C48.1437 6.39268 47.7323 6.74234 47.2607 6.99229C46.7712 7.12344 46.2674 7.19354 45.7608 7.20101C45.57 7.22855 45.3951 7.32265 45.2671 7.46666C45.1885 7.58804 45.1337 7.72327 45.1057 7.86513C45.099 8.06496 45.0292 8.25755 44.9064 8.4154C44.7468 8.56865 44.5601 8.6909 44.3558 8.77592C43.9415 8.9508 43.4954 9.03802 43.0457 9.03207C42.2863 9.03207 41.5268 8.8613 40.7674 8.91823C38.2232 9.11746 35.8499 11.0908 34.3879 13.0737C33.4386 14.345 32.7931 15.7871 31.8438 17.0394C31.0543 18.0947 29.981 18.904 28.749 19.3733C27.7338 19.6244 26.7475 19.9805 25.8061 20.4359C25.3541 20.8059 24.9743 21.2562 24.6859 21.7641C23.5847 23.4623 22.1892 25.1416 21.5532 27.0675C22.3567 27.6395 23.1901 28.1684 24.0499 28.6519C29.1999 31.3784 34.9824 32.6881 40.8053 32.4469C46.8145 32.2571 52.9091 30.8909 59.0227 29.2496C65.1363 27.6083 71.3638 25.5496 77.9236 24.0885C84.6573 22.4373 91.614 21.8862 98.5238 22.4567C103.061 22.9636 107.522 24.005 111.814 25.559C112.849 25.929 113.884 26.3275 114.909 26.745C115.45 26.9442 116.76 27.8265 117.406 27.5134Z" fill="#F87C56"/>
<path d="M131.408 105.983C132.623 104.475 134.807 104.39 135.842 102.634C136.876 100.879 135.889 97.8907 135.424 96.1071C134.959 94.3235 135.291 93.0047 135.481 91.0883C135.716 88.9845 135.493 86.8548 134.826 84.8456C134.117 83.1333 133.309 81.4639 132.405 79.8458C131.579 78.1381 131.456 76.1457 130.298 74.5708C128.816 72.5497 127.116 70.6979 125.228 69.0492C121.516 65.7731 117.238 63.201 112.602 61.4593C105.387 58.689 97.5461 58.3949 89.344 59.4195C81.1419 60.4441 72.7024 62.408 63.7124 63.4801C59.1999 63.9874 54.6569 64.1713 50.1182 64.0304C46.0049 63.8428 41.8841 63.8966 37.7771 64.1916C34.1323 64.4382 30.5775 65.4329 27.3346 67.1137C24.0793 68.8615 21.1812 71.2044 18.7907 74.0205C13.8638 79.7888 10.8734 87.0941 9.48742 94.9971C9.35451 95.7371 9.25009 96.4771 9.14566 97.2171C8.94603 98.0522 8.87244 98.9124 8.92732 99.7692C9.21932 100.708 9.29078 101.701 9.13617 102.672C9.04402 102.984 8.9711 103.301 8.91783 103.621C8.77543 104.712 9.55387 105.519 9.75323 106.543C9.87352 107.481 10.3246 108.346 11.0253 108.981C11.3119 109.25 11.6521 109.455 12.0235 109.582C12.3949 109.71 12.7891 109.757 13.1803 109.721C13.4626 109.612 13.7606 109.548 14.0631 109.532C14.5568 109.532 14.8985 110.006 15.2023 110.395C15.9997 111.41 16.6548 110.926 17.699 110.822C17.9179 110.789 18.1411 110.804 18.3539 110.865C18.5667 110.925 18.7642 111.03 18.9331 111.173C19.0797 111.354 19.2417 111.522 19.4173 111.676C19.5404 111.749 19.6773 111.796 19.8194 111.814C19.9615 111.832 20.1057 111.82 20.2432 111.78C20.6679 111.62 21.1023 111.487 21.5437 111.382C21.6672 111.382 23.0532 111.135 23.0437 111.182C23.2275 109.272 23.5095 107.372 23.8886 105.49C24.892 101.211 26.777 97.1884 29.4231 93.6783C32.1827 89.9666 35.9771 87.1515 40.3307 85.5856C44.878 84.0012 49.3018 84.2194 53.0326 84.3333C54.9312 84.3902 56.678 84.4851 58.3203 84.4282C59.9197 84.3743 61.5097 84.1614 63.0669 83.7925C66.4756 82.8785 69.8031 81.6854 73.0157 80.2253C76.6853 78.6054 80.4994 77.3348 84.4075 76.4303C88.5094 75.5799 92.7222 75.4005 96.8816 75.899C101.04 76.3666 105.108 77.4373 108.957 79.0773C112.879 80.6875 116.509 82.9311 119.703 85.7184C125.597 90.9115 129.667 97.8589 131.313 105.538" fill="#F87C56"/>
<path d="M121.203 115.129C121.868 115.129 122.542 115.129 122.532 115.034C122.392 106.674 119.088 98.6777 113.286 92.6538C108.568 87.9721 102.459 84.9431 95.8752 84.0203C92.5956 83.5632 89.2614 83.6788 86.0213 84.3618C82.6291 85.1442 79.3339 86.2992 76.1959 87.8057C72.5986 89.5058 68.8719 90.9175 65.0509 92.0276C62.9641 92.5531 60.8304 92.8709 58.681 92.9763C56.5735 93.0902 54.5989 93.0333 52.7288 92.9763C49.0074 92.8625 45.7513 92.872 43.1786 93.8397C40.442 94.8555 38.0536 96.6333 36.2961 98.9629C33.4372 102.793 31.7848 107.387 31.5495 112.16C31.4566 113.83 31.4915 115.504 31.6539 117.169C32.176 122.7 33.8184 128.307 35.7455 134.028C35.7929 134.161 37.103 133.791 37.2264 133.772C37.866 133.678 38.519 133.746 39.125 133.971C39.8465 134.237 40.4541 134.806 41.1851 135.053C41.916 135.299 42.5901 135.47 43.302 135.755C43.763 135.991 44.2665 136.133 44.783 136.172C45.2518 136.102 45.7286 136.102 46.1975 136.172C46.0652 135.444 45.9702 134.709 45.9127 133.971C45.2954 128.126 46.513 122.234 49.3967 117.112C52.3319 112.171 56.5942 108.152 61.6998 105.509C66.6454 102.915 72.1218 101.494 77.7053 101.354C83.2961 101.172 88.8502 102.319 93.9101 104.703C99.1275 107.109 103.576 110.911 106.764 115.689C108.52 118.382 109.742 121.387 110.362 124.541C110.438 124.873 111.51 124.901 111.719 124.92C112.004 124.999 112.303 125.007 112.592 124.942C112.88 124.878 113.148 124.743 113.371 124.55C114.007 123.896 113.855 122.653 114.615 122.103C115.374 121.552 115.849 121.325 116.105 120.385C116.203 119.79 116.359 119.205 116.57 118.64C116.817 118.127 117.301 117.881 117.52 117.283C117.615 116.899 117.745 116.524 117.909 116.163C118.143 115.822 118.46 115.545 118.83 115.359C119.201 115.173 119.612 115.085 120.026 115.101C120.064 115.091 120.624 115.11 121.203 115.129Z" fill="#F87C56"/>
</svg>
