<svg width="530" height="140" viewBox="0 0 530 140" fill="none" xmlns="http://www.w3.org/2000/svg">
<g clip-path="url(#clip0_37_72)">
<path d="M161.083 59.3956C161.083 58.3941 162.338 57.4675 163.593 57.0557C167.61 56.466 168.528 55.2961 170.036 51.1966C175.309 37.4755 180.666 23.8387 185.957 10.1176C186.547 8.52649 186.126 6.94472 184.29 6.52354C183.806 6.43373 183.371 6.17209 183.064 5.78682C182.758 5.40155 182.601 4.91862 182.623 4.42701C182.623 3.67824 183.119 2.5083 185.301 2.5083H190.49C195.762 2.5083 197.046 5.26937 197.982 7.69349L215.064 51.8612C216.404 55.2961 217.068 56.0449 220.683 56.6345C221.245 56.7646 221.744 57.0861 222.094 57.5439C222.445 58.0016 222.625 58.567 222.603 59.1429C222.603 61.0709 220.683 61.3985 219.176 61.3985C215.074 61.3143 208.621 61.3143 204.275 61.3985C200.923 61.3985 198.919 61.3143 198.919 59.3113C198.919 58.4784 199.415 57.9729 200.342 57.636C204.772 56.803 205.615 56.0449 204.191 52.2823L201.925 46.0957C201.26 44.4203 200.258 43.4188 198.413 43.4188H181.087C178.746 43.4188 177.987 43.6622 177.238 45.6745L174.972 51.702C173.464 55.8015 173.885 56.9715 178.409 57.4675C179.664 57.7202 180.666 58.3099 180.666 59.4798C180.666 61.1552 178.905 61.3517 177.397 61.3517H163.892C161.551 61.4828 161.083 60.3971 161.083 59.3956ZM196.989 38.8046C198.329 38.8046 199.331 38.2992 198.862 36.8017C196.1 29.314 193.421 21.8264 190.658 14.2077C190.237 12.9535 189.488 12.9535 188.982 14.2077C186.172 21.6954 183.363 29.3515 180.553 36.9608C179.973 38.5519 181.396 38.8327 182.82 38.8327L196.989 38.8046Z" fill="#382E2C"/>
<path d="M215.28 69.4291C215.247 68.8769 215.326 68.3237 215.513 67.8029C215.699 67.2821 215.99 66.8044 216.366 66.3987C216.742 65.9929 217.197 65.6675 217.702 65.4419C218.207 65.2164 218.753 65.0954 219.307 65.0863C220.158 65.0594 220.992 65.3228 221.673 65.8331C222.354 66.3435 222.841 67.0704 223.053 67.8941C223.381 69.9813 224.308 72.1527 225.816 72.1527C228.326 72.1527 232.175 68.0626 234.769 64.9646C235.612 63.9538 235.527 63.2892 234.263 60.1912C230.414 49.7366 226.902 38.6081 223.549 29.7446C222.463 26.8151 221.629 26.0008 219.119 25.5609C218.621 25.4458 218.172 25.1735 217.84 24.7842C217.508 24.3949 217.31 23.9093 217.275 23.3989C217.275 21.7329 218.614 21.2275 221.882 21.2275C226.902 21.3117 229.665 21.3117 234.769 21.2275C238.618 21.2275 239.292 21.9762 239.292 23.3989C239.283 23.8198 239.142 24.2273 238.888 24.5633C238.634 24.8994 238.281 25.1469 237.878 25.2708C233.27 26.2067 232.437 27.2831 233.355 29.7072C235.865 36.4835 238.627 45.5155 241.306 52.6287C241.812 53.7986 242.645 53.5647 243.067 52.7129C246.813 46.8539 250.68 40.7515 251.018 35.8658C251.608 31.3545 250.268 29.7633 248.339 28.6776C247.65 28.134 247.084 27.4495 246.68 26.67C246.276 25.8904 246.044 25.0336 245.998 24.157C246.016 23.6046 246.162 23.0639 246.423 22.5769C246.685 22.0899 247.055 21.6698 247.506 21.3491C248.351 20.8365 249.326 20.5767 250.315 20.6004C251.442 20.5972 252.537 20.9804 253.415 21.6861C254.258 22.3006 254.947 23.1014 255.429 24.026C256.551 26.3617 257.124 28.9227 257.105 31.5136C257.105 35.5288 255.176 41.3879 250.484 49.6711C248.245 53.5512 245.787 57.301 243.123 60.9025C236.923 69.1015 229.899 76.5423 223.615 76.5423C218.464 76.5423 215.28 73.697 215.28 69.4291Z" fill="#382E2C"/>
<path d="M266.339 46.3391V30.8865C266.339 28.79 266.171 27.3673 264.082 27.3673C261.816 27.3673 259.812 27.62 259.727 26.1974C259.643 24.7747 260.982 24.1944 262.537 23.689C266.386 22.4349 270.572 21.0122 272.745 21.0122C274.618 21.0122 275.424 21.6019 275.424 23.4363V44.9258C275.424 52.7036 278.439 55.8016 283.852 55.8016C288.535 55.8016 293.733 51.7021 293.733 42.4924V30.8865C293.733 28.79 293.564 27.3673 291.466 27.3673C289.125 27.3673 287.196 27.62 287.121 26.1974C287.046 24.7747 288.376 24.1944 289.93 23.689C293.864 22.4349 298.041 21.0122 300.232 21.0122C302.105 21.0122 302.911 21.6019 302.911 23.4363V51.9455C302.911 54.042 303.079 55.3804 305.083 55.4647C307.434 55.3804 309.354 55.1277 309.438 56.6346C309.523 58.1415 308.183 58.5533 306.676 59.143C302.826 60.3129 298.64 61.8198 296.467 61.8198C294.538 61.8198 293.789 61.1553 293.789 59.3114V54.9593C293.789 53.8736 293.62 53.6208 293.367 53.6208C292.693 53.6208 290.942 62.1567 279.807 62.1567C272.286 62.1567 266.339 57.7203 266.339 46.3391Z" fill="#382E2C"/>
<path d="M312.8 41.7434C312.8 29.8662 319.815 20.5909 330.95 20.5909C338.901 20.5909 340.999 25.5233 342.001 25.5233C342.666 25.5233 342.751 23.848 342.751 20.5909V12.1673C342.751 10.0707 342.591 8.81657 340.494 8.6481C338.152 8.6481 336.223 8.98504 336.139 7.47815C336.139 6.13974 337.394 5.60625 338.901 5.05403C342.835 3.79985 347.021 2.29297 349.203 2.29297C351.076 2.29297 351.882 2.96686 351.882 4.80133V51.9453C351.882 54.0419 352.05 55.4645 354.054 55.4645C356.396 55.3803 358.325 55.0433 358.409 56.6345C358.494 58.0571 357.154 58.5532 355.647 59.0586C351.797 60.2285 347.611 61.8196 345.438 61.8196C343.509 61.8196 342.751 61.1551 342.751 59.3113V55.8015C342.666 54.0419 342.591 53.2837 342.339 53.2837C341.749 53.2837 338.742 62.2408 328.356 62.2408C318.981 62.2408 312.8 53.9576 312.8 41.7434ZM342.769 43.9897V41.238C342.769 30.9425 339.089 24.8401 332.393 24.8401C327.204 24.8401 322.344 29.3608 322.344 38.3085C322.344 49.3527 326.446 56.0916 333.067 56.0916C338.405 56.0448 342.769 51.1123 342.769 43.9897Z" fill="#382E2C"/>
<path d="M362.081 50.8597C362.081 43.5031 368.692 38.477 379.996 38.0652C386.355 37.8125 387.489 37.307 387.114 35.0514L386.945 33.1233C386.196 27.8539 384.014 24.8401 379.406 24.8401C375.061 24.8401 371.792 27.3485 371.792 31.9534C371.745 32.4873 371.593 33.0066 371.344 33.4813C371.095 33.9559 370.754 34.3765 370.341 34.7185C369.928 35.0606 369.451 35.3175 368.939 35.4742C368.426 35.631 367.887 35.6845 367.353 35.6317C366.91 35.6336 366.472 35.5451 366.064 35.3714C365.657 35.1977 365.289 34.9427 364.984 34.6219C364.679 34.3011 364.442 33.9213 364.289 33.5058C364.136 33.0904 364.07 32.6481 364.094 32.2061C364.094 25.6544 371.586 20.4973 381.42 20.4973C391.253 20.4973 394.981 25.5983 396.067 34.1342L398.024 49.9424C398.605 54.7064 399.691 55.5582 401.115 55.5582C403.129 55.5582 403.213 53.5458 404.299 53.5458C404.974 53.5458 405.638 54.0513 405.638 55.3054C405.638 58.1133 402.623 61.9133 398.146 61.9133C393.67 61.9133 391.778 59.4892 390.654 55.3616C390.57 54.9404 390.317 54.6035 390.064 54.6035C388.978 54.6035 387.142 62.2221 375.005 62.2221C365.845 62.2409 362.081 57.0931 362.081 50.8597ZM388.453 45.3375L388.285 43.9898C388.032 41.5656 387.03 41.4814 382.01 41.4814C374.218 41.4814 371.371 44.9164 371.371 49.1749C371.371 54.1168 373.881 56.9621 378.994 56.9621C384.763 56.9714 389.287 51.9454 388.453 45.3375Z" fill="#382E2C"/>
<path d="M163.059 112.68C163.059 100.306 172.424 92.3506 182.979 92.3506C193.281 92.3506 199.471 99.7165 199.471 106.072C199.471 110.087 197.467 111.098 193.534 111.687L174.531 114.495C173.688 114.664 173.192 114.916 173.192 115.834C173.246 119.025 174.553 122.067 176.83 124.305C179.108 126.542 182.173 127.796 185.367 127.795C187.68 127.838 189.969 127.32 192.038 126.287C194.108 125.254 195.897 123.735 197.252 121.861C197.392 121.65 197.577 121.472 197.794 121.341C198.011 121.21 198.254 121.129 198.506 121.103C198.776 121.099 199.041 121.164 199.278 121.292C199.514 121.42 199.714 121.607 199.857 121.835C200 122.062 200.082 122.323 200.095 122.592C200.108 122.86 200.051 123.128 199.93 123.368C197.589 128.89 192.063 133.991 182.763 133.991C170.177 133.935 163.059 124.145 163.059 112.68ZM188.242 107.916C190.171 107.579 190.93 106.98 190.93 105.576C190.87 103.182 189.886 100.905 188.184 99.2195C186.482 97.5344 184.194 96.5722 181.799 96.5343C176.948 96.5343 172.256 100.971 172.256 107.916C172.256 110.255 172.846 110.34 174.129 110.171L188.242 107.916Z" fill="#382E2C"/>
<path d="M202.983 131.034C202.983 130.032 203.573 129.527 204.491 129.162C209.014 128.16 209.014 126.485 209.014 122.133V102.478C209.014 100.39 208.846 99.0427 206.832 98.9678C204.491 99.0427 202.477 99.2954 202.477 97.7885C202.477 96.2816 203.732 95.9166 205.287 95.2801C209.136 94.1102 213.322 92.6033 215.504 92.6033C217.424 92.6033 218.183 93.2772 218.183 95.1117V99.885C218.183 100.55 218.267 100.821 218.52 100.821C219.185 100.821 221.03 92.2102 232.081 92.2102C239.274 92.2102 244.378 96.4688 245.642 107.597L247.14 121.318C247.815 127.43 247.899 128.01 252.085 128.928C252.569 129.051 252.996 129.333 253.3 129.729C253.604 130.124 253.767 130.61 253.762 131.108C253.762 132.363 253.003 133.196 249.407 133.196C244.724 133.111 242.795 133.111 238.356 133.196C233.917 133.28 232.737 132.7 232.737 131.108C232.711 130.624 232.87 130.147 233.181 129.774C233.491 129.401 233.931 129.159 234.413 129.096C238.515 128.263 238.843 127.674 238.094 120.813L236.67 109.273C235.921 102.075 233.57 98.7338 227.96 98.7338C223.699 98.7338 218.174 102.478 218.174 111.837V122.048C218.174 126.56 218.258 127.982 222.772 129.068C223.615 129.489 224.364 130.004 224.364 130.996C224.364 132.419 223.428 133.168 218.258 133.168H209.295C204.163 133.177 202.983 132.428 202.983 131.034Z" fill="#382E2C"/>
<path d="M262.322 131.09C262.322 130.088 263.576 129.162 264.831 128.75C268.849 128.16 269.767 126.99 271.275 122.891C276.547 109.17 281.904 95.5329 287.196 81.8118C287.776 80.2207 287.355 78.6389 285.519 78.2177C285.049 78.1123 284.631 77.844 284.34 77.4603C284.048 77.0766 283.902 76.6022 283.927 76.1212C283.927 75.3724 284.424 74.2493 286.606 74.2493H291.794C297.067 74.2493 298.35 77.0571 299.333 79.4345L316.397 123.546C317.736 126.981 318.41 127.73 322.016 128.319C322.578 128.449 323.077 128.771 323.427 129.229C323.777 129.686 323.957 130.252 323.936 130.828C323.936 132.756 322.016 133.083 320.508 133.083C316.406 132.999 309.963 132.999 305.608 133.083C302.255 133.083 300.251 132.999 300.251 130.996C300.251 130.163 300.747 129.658 301.674 129.321C306.104 128.488 306.947 127.73 305.524 123.967L303.267 117.78C302.592 116.105 301.59 115.104 299.745 115.104H282.419C280.078 115.104 279.32 115.347 278.57 117.359L276.276 123.396C274.768 127.496 275.18 128.666 279.703 129.162C280.958 129.414 281.961 130.004 281.961 131.174C281.961 132.849 280.209 133.046 278.701 133.046H265.169C262.818 133.177 262.322 132.091 262.322 131.09ZM298.228 110.499C299.567 110.499 300.579 109.993 300.101 108.496C297.291 100.961 294.66 93.5206 291.897 85.9019C291.476 84.6477 290.726 84.6477 290.221 85.9019C287.411 93.3895 284.602 101.046 281.792 108.655C281.202 110.246 282.625 110.527 284.049 110.527L298.228 110.499Z" fill="#382E2C"/>
<path d="M324.591 113.101C324.591 100.933 333.46 92.3506 344.09 92.3506C352.209 92.3506 360.329 97.2924 360.329 104.518C360.329 106.53 359.243 108.262 357.07 108.262C354.392 108.262 353.137 106.755 352.387 104.247C351.807 100.063 349.625 96.5437 343.856 96.5437C338.658 96.5437 333.975 101.485 333.975 109.928C333.975 119.802 338.33 127.711 347.087 127.711C349.342 127.718 351.567 127.201 353.588 126.2C355.608 125.2 357.368 123.743 358.728 121.945C359.308 121.187 359.73 121.009 360.067 121.009C361.406 121.009 361.818 122.179 361.481 123.275C359.224 129.04 353.699 133.898 344.493 133.898C332.121 133.935 324.591 124.819 324.591 113.101Z" fill="#382E2C"/>
<path d="M366.52 113.101C366.52 100.933 375.389 92.3506 386.018 92.3506C394.147 92.3506 402.258 97.2924 402.258 104.518C402.258 106.53 401.171 108.262 398.998 108.262C396.32 108.262 395.065 106.755 394.316 104.247C393.735 100.063 391.553 96.5437 385.784 96.5437C380.586 96.5437 375.904 101.485 375.904 109.928C375.904 119.802 380.259 127.711 389.015 127.711C391.27 127.718 393.496 127.201 395.516 126.2C397.536 125.2 399.296 123.743 400.656 121.945C401.237 121.187 401.658 121.009 401.995 121.009C403.335 121.009 403.747 122.179 403.419 123.275C401.152 129.04 395.627 133.898 386.421 133.898C374.049 133.935 366.52 124.819 366.52 113.101Z" fill="#382E2C"/>
<path d="M408.111 131.174C408.118 130.739 408.27 130.318 408.543 129.979C408.816 129.64 409.195 129.402 409.619 129.302C414.142 128.301 414.142 126.625 414.142 122.273V102.478C414.142 100.39 413.974 98.9678 411.969 98.9678C409.619 99.0427 407.615 99.2954 407.615 97.7885C407.615 96.2816 408.869 95.9166 410.377 95.2802C414.226 94.1102 418.413 92.6033 420.585 92.6033C422.515 92.6033 423.264 93.2772 423.264 95.1117V122.254C423.264 126.775 423.348 128.282 427.872 129.368C428.705 129.705 429.464 130.21 429.464 131.24C429.464 132.662 428.527 133.495 423.348 133.495C420.417 133.411 417.411 133.411 414.395 133.495C409.263 133.43 408.111 132.597 408.111 131.174ZM411.042 81.5684C411.042 78.7606 413.552 76.9729 417.486 76.9729C421.232 76.9729 423.685 78.8448 423.685 81.5684C423.685 84.498 421.26 86.426 417.486 86.426C413.552 86.4167 411.042 84.4886 411.042 81.5591V81.5684Z" fill="#382E2C"/>
<path d="M431.964 113.101C431.964 100.933 440.758 92.1914 453.392 92.1914C466.026 92.1914 474.661 100.886 474.661 113.101C474.661 125.315 465.951 133.935 453.392 133.935C440.833 133.935 431.964 125.231 431.964 113.101ZM465.033 116.367C465.033 107.326 460.257 96.6185 452.474 96.6185C446.115 96.6185 441.592 101.729 441.592 109.844C441.592 119.044 446.368 129.583 454.151 129.583C460.594 129.583 465.033 124.482 465.033 116.367ZM448.962 87.9796C448.962 86.6412 455.321 79.3595 457.166 77.0196C458.253 75.26 459.845 75.0916 462.186 75.0916C464.949 75.0916 465.782 75.597 465.782 76.7669C465.782 79.4437 452.727 89.0653 450.386 89.0653C449.459 89.0934 448.962 88.8407 448.962 87.9796Z" fill="#382E2C"/>
<path d="M478.332 131.034C478.332 130.032 478.922 129.527 479.84 129.162C484.363 128.16 484.363 126.485 484.363 122.133V102.478C484.363 100.39 484.194 99.0427 482.181 98.9678C479.84 99.0427 477.826 99.2954 477.826 97.7885C477.826 96.2816 479.09 95.9166 480.589 95.2801C484.447 94.1102 488.624 92.6033 490.806 92.6033C492.679 92.6033 493.485 93.2772 493.485 95.1117V99.885C493.485 100.55 493.569 100.821 493.822 100.821C494.487 100.821 496.332 92.2102 507.383 92.2102C514.575 92.2102 519.689 96.4688 520.944 107.597L522.452 121.318C523.117 127.43 523.201 128.01 527.387 128.928C527.87 129.051 528.298 129.333 528.602 129.729C528.906 130.124 529.069 130.61 529.063 131.108C529.063 132.363 528.305 133.196 524.709 133.196C520.026 133.111 518.097 133.111 513.658 133.196C509.218 133.28 508.038 132.7 508.038 131.108C508.013 130.624 508.172 130.147 508.482 129.774C508.793 129.401 509.233 129.159 509.715 129.096C513.817 128.263 514.154 127.674 513.395 120.813L511.972 109.273C511.223 102.075 508.881 98.7338 503.272 98.7338C499.001 98.7338 493.475 102.478 493.475 111.837V122.048C493.475 126.56 493.56 127.982 498.083 129.068C498.917 129.489 499.666 130.004 499.666 130.996C499.666 132.419 498.729 133.168 493.56 133.168H484.607C479.502 133.177 478.332 132.428 478.332 131.034Z" fill="#382E2C"/>
<path d="M97.708 136.846C98.5873 136.577 99.3792 136.08 100.002 135.405C100.497 134.415 100.886 133.377 101.164 132.306C101.291 131.762 101.375 131.208 101.417 130.65C101.511 130.067 101.574 129.48 101.604 128.89C101.684 128.078 101.684 127.26 101.604 126.447C101.383 123.953 100.609 121.539 99.3375 119.381C97.1555 115.823 93.9686 112.99 90.1783 111.238C86.3059 109.35 82.0396 108.41 77.7318 108.496C69.1813 108.692 60.4623 113.176 56.7161 120.411C54.8966 124.023 54.2422 128.11 54.8431 132.11C55.1094 133.614 55.5625 135.079 56.1917 136.471C56.1074 136.266 58.4581 135.676 58.6454 135.62C59.252 135.463 59.8492 135.273 60.4342 135.049C61.2583 134.712 61.9139 134.113 62.7287 133.785C63.2681 133.52 63.8578 133.374 64.4585 133.354C65.0592 133.335 65.6571 133.443 66.2125 133.673C67.1491 134.188 67.6267 134.852 68.7318 134.983C69.4627 134.972 70.1914 135.067 70.8952 135.264C71.4571 135.507 71.8973 136.032 72.4966 136.153C73.1716 136.188 73.8366 135.979 74.3697 135.564C75.2488 135.155 76.21 134.953 77.1793 134.974C77.944 134.887 78.7147 134.865 79.4831 134.908C80.1762 134.965 80.504 135.386 81.094 135.723C82.3113 136.416 83.7037 136.741 85.1023 136.659C85.6852 136.573 86.2763 136.557 86.863 136.612C87.8838 136.799 88.736 137.95 89.607 138.428C90.7382 139.029 92.0484 139.201 93.2969 138.914C94.5297 138.512 95.7066 137.955 96.7995 137.258C97.0899 137.108 97.3989 136.977 97.708 136.846Z" fill="#F87C56"/>
<path d="M2.73466 67.3232C2.80022 67.4261 2.85641 67.5478 2.93134 67.6601C3.13025 68.0175 3.39382 68.3349 3.70865 68.5961C3.98025 68.8207 4.29867 68.9798 4.58899 69.1857C4.78932 69.3144 4.96661 69.4757 5.11345 69.6631C5.26329 69.8503 5.29139 70.103 5.54425 70.1872C6.15234 70.5962 6.70346 71.0841 7.18317 71.6379C7.60827 72.0282 8.09576 72.3446 8.62543 72.5739C9.68667 70.886 10.8534 69.2667 12.1187 67.7257C15.2282 63.9587 19.0182 60.8092 23.2915 58.441C25.4926 57.2493 27.8203 56.3074 30.2311 55.6331C32.5984 55.0088 35.019 54.6077 37.4611 54.4351C41.9078 54.2437 46.3621 54.3344 50.7973 54.7065C54.8229 55.0256 58.8689 54.9881 62.8879 54.5942C70.9514 53.8174 79.1928 51.646 87.9962 50.5228C92.5062 49.8945 97.0652 49.6908 101.613 49.9144C106.318 50.2204 110.952 51.2234 115.362 52.8908C124.238 56.2529 131.878 62.2371 137.267 70.0468C137.342 70.1498 137.398 70.2527 137.464 70.3463C137.567 69.9626 137.464 69.6537 137.688 69.2793C137.913 68.9049 138.25 68.7271 138.447 68.3434C138.57 68.0477 138.615 67.7255 138.578 67.4074C138.59 67.0825 138.67 66.7637 138.812 66.4715C138.925 66.2188 139.187 66.0035 139.29 65.7602C139.384 65.0702 139.286 64.3677 139.009 63.7291C138.888 63.4541 138.822 63.1587 138.812 62.8587C138.908 62.5584 139.03 62.2671 139.177 61.9883C139.294 61.6262 139.294 61.2366 139.177 60.8745C138.906 60.1163 138.063 59.8824 137.923 59.0681C137.913 58.2593 137.599 57.4838 137.042 56.8967C136.171 56.1947 135.066 55.7922 134.626 54.6691C134.364 54.0139 134.682 53.3588 134.411 52.7317C134.139 52.1046 133.661 51.7957 133.577 51.178C133.577 50.8036 133.577 50.4292 133.577 50.0548C133.449 49.3386 133.161 48.6604 132.734 48.0706C132.575 47.7711 132.36 47.5184 132.2 47.2283C132.129 46.9429 132.085 46.6514 132.069 46.3578C126.578 42.3543 120.687 38.9292 114.491 36.1372C109.084 33.7134 103.304 32.2259 97.3989 31.7382C91.6393 31.2234 85.7111 32.0096 79.6892 33.1702C67.6361 35.5101 55.2552 40.1899 41.4976 40.714C34.7265 41.0416 27.4496 40.2741 20.7909 37.3071C18.9325 36.4808 17.1414 35.5107 15.434 34.4057L14.9845 34.3495C13.7145 34.2811 12.4601 34.6549 11.435 35.4072C10.561 36.1441 9.53423 36.6779 8.42876 36.9702C7.49223 37.1012 6.49951 36.9702 5.90013 37.9062C5.4225 38.6081 5.24456 39.5441 4.52343 40.0589C4.14882 40.3303 3.71802 40.5175 3.35277 40.7983C3.15839 40.9287 2.99822 41.1039 2.88576 41.3091C2.7733 41.5144 2.71184 41.7436 2.70657 41.9776C2.76462 42.2758 2.8689 42.5632 3.01562 42.8293C3.22166 43.3253 3.07181 43.5687 2.87514 44.0086C2.72763 44.2975 2.6235 44.6066 2.56609 44.9258C2.53525 45.4338 2.66641 45.9384 2.9407 46.3672C3.17483 46.779 3.615 47.1066 3.81167 47.5278C3.96662 47.9042 4.00257 48.319 3.91469 48.7164C3.77185 49.1896 3.59662 49.6525 3.39023 50.1016C3.12801 50.7942 3.10928 51.5243 2.88451 52.2075C2.78374 52.4864 2.59254 52.7236 2.34132 52.8814C1.72321 53.3494 1.94798 53.9578 2.19148 54.6317C2.42965 55.261 2.50691 55.9398 2.41624 56.6065C2.30386 57.2336 1.77004 57.6922 1.57337 58.31C1.42807 58.709 1.42807 59.1464 1.57337 59.5454C1.68575 59.8075 1.88242 60.0321 2.01354 60.2848C2.21861 60.7084 2.29164 61.1839 2.22318 61.6495C2.15471 62.1151 1.94791 62.5494 1.62956 62.8961C1.38259 63.1367 1.19356 63.4302 1.07674 63.7545C0.959927 64.0788 0.918387 64.4254 0.955261 64.768C1.03397 65.2076 1.25042 65.6107 1.57337 65.9193C1.86369 66.1907 2.06973 66.5276 2.36942 66.7897C2.52034 66.9457 2.64382 67.1261 2.73466 67.3232Z" fill="#F87C56"/>
<path d="M116.766 28.0786C118.115 27.2643 116.57 24.1756 115.83 23.3988C115.221 22.7998 114.369 22.6032 113.751 22.0697C113.133 21.5363 112.945 21.0028 112.44 20.5535C111.287 19.5042 109.831 18.8486 108.281 18.6816C107.111 18.5599 105.921 18.7284 104.751 18.6161C104.163 18.5779 103.591 18.4074 103.079 18.1173C102.566 17.8272 102.126 17.4249 101.791 16.9407C101.051 16.0048 99.9931 15.2373 99.1971 14.2826C98.5696 13.5151 98.092 12.888 96.9962 12.8974C96.528 12.8974 95.7225 13.1407 95.3854 12.6915C95.2323 12.4264 95.1217 12.139 95.0576 11.8398C94.8997 11.4777 94.667 11.153 94.3749 10.8869C94.0828 10.6207 93.7378 10.4192 93.3625 10.2954C92.6046 10.0591 91.8151 9.93915 91.0212 9.93978C90.2199 9.96832 89.4235 9.80464 88.6986 9.46245C88.3443 9.22726 88.0092 8.96437 87.6965 8.67624C86.928 8.13678 86.098 7.69063 85.2241 7.34719C84.8663 7.15788 84.4676 7.0589 84.0628 7.0589C83.6579 7.0589 83.2592 7.15788 82.9015 7.34719C82.1956 7.62448 81.4552 7.80398 80.7006 7.88068C79.5112 8.06787 77.8255 8.27378 76.889 7.31911C76.7299 7.20544 76.5525 7.11996 76.3645 7.0664C75.7939 6.71038 75.1565 6.47469 74.4915 6.3738C74.1004 6.40727 73.7068 6.3529 73.3395 6.21468C73.0042 5.99636 72.7225 5.70522 72.5154 5.36297C72.0003 4.67972 71.0357 4.73588 70.5768 4.01519C70.3707 3.68761 70.3801 3.26643 70.1928 2.93885C70.0539 2.73373 69.8648 2.56756 69.6435 2.45615C69.4222 2.34475 69.176 2.29182 68.9285 2.3024C68.4232 2.32508 67.9213 2.39718 67.43 2.51767C66.0973 2.74546 64.7267 2.55585 63.506 1.97481C62.9956 1.64068 62.4565 1.35252 61.8951 1.11374C61.2173 0.93475 60.511 0.890234 59.8161 0.982702C57.943 1.25413 56.9128 2.54575 55.5829 3.72505C55.0454 4.23107 54.4795 4.70605 53.8878 5.1477C53.6513 5.36993 53.3627 5.52924 53.0485 5.61101C52.7343 5.69278 52.4046 5.69438 52.0897 5.61567C51.6194 5.45873 51.1237 5.39204 50.6287 5.41912C49.8566 5.64846 49.1921 6.14649 48.7557 6.82306C48.4374 7.24235 48.0315 7.5873 47.5663 7.83389C47.0834 7.96326 46.5864 8.03242 46.0865 8.0398C45.8984 8.06696 45.7258 8.15979 45.5996 8.30186C45.522 8.4216 45.468 8.55501 45.4403 8.69496C45.4337 8.89211 45.3648 9.0821 45.2437 9.23782C45.0862 9.389 44.902 9.50961 44.7005 9.59348C44.2918 9.76601 43.8517 9.85205 43.4081 9.84619C42.6589 9.84619 41.9096 9.67771 41.1604 9.73387C38.6505 9.93042 36.3092 11.8772 34.8669 13.8334C33.9304 15.0875 33.2936 16.5102 32.357 17.7456C31.5782 18.7867 30.5194 19.5852 29.304 20.0481C28.3024 20.2958 27.3294 20.6471 26.4007 21.0964C25.9548 21.4614 25.5801 21.9057 25.2956 22.4067C24.2092 24.082 22.8326 25.7387 22.2051 27.6387C22.9978 28.2029 23.82 28.7247 24.6681 29.2017C29.7488 31.8915 35.4534 33.1835 41.1979 32.9455C47.1261 32.7583 53.1386 31.4106 59.1698 29.7914C65.2011 28.1722 71.3447 26.1411 77.8161 24.6998C84.4591 23.0708 91.322 22.5272 98.1388 23.0899C102.615 23.59 107.016 24.6174 111.25 26.1505C112.271 26.5155 113.292 26.9086 114.303 27.3204C114.837 27.517 116.129 28.3874 116.766 28.0786Z" fill="#F87C56"/>
<path d="M130.58 105.491C131.779 104.003 133.933 103.919 134.954 102.187C135.975 100.456 135.001 97.5077 134.542 95.7481C134.083 93.9885 134.411 92.6875 134.598 90.7969C134.83 88.7215 134.609 86.6205 133.952 84.6383C133.252 82.9491 132.455 81.3022 131.563 79.7059C130.749 78.0212 130.627 76.0556 129.484 74.502C128.023 72.5081 126.346 70.6813 124.483 69.0547C120.821 65.8228 116.6 63.2854 112.027 61.5671C104.91 58.8341 97.1742 58.5439 89.0826 59.5548C80.991 60.5656 72.6652 62.503 63.7963 63.5607C59.3446 64.0611 54.8628 64.2425 50.3852 64.1035C46.3273 63.9185 42.262 63.9716 38.2103 64.2626C34.6147 64.5059 31.1078 65.4872 27.9085 67.1454C24.6972 68.8696 21.8381 71.1809 19.4798 73.9591C14.6192 79.6497 11.6691 86.8566 10.3018 94.653C10.1707 95.3831 10.0677 96.1131 9.96466 96.8432C9.76772 97.667 9.69511 98.5156 9.74926 99.3609C10.0373 100.287 10.1078 101.267 9.95529 102.225C9.86438 102.532 9.79245 102.845 9.73989 103.161C9.59941 104.237 10.3674 105.033 10.564 106.044C10.6827 106.969 11.1277 107.822 11.819 108.449C12.1017 108.714 12.4373 108.916 12.8037 109.042C13.1701 109.167 13.5591 109.214 13.9449 109.179C14.2234 109.071 14.5174 109.008 14.8159 108.992C15.3029 108.992 15.64 109.46 15.9397 109.844C16.7264 110.845 17.3726 110.368 18.4028 110.265C18.6187 110.233 18.8389 110.247 19.0489 110.307C19.2588 110.366 19.4536 110.47 19.6203 110.611C19.7649 110.79 19.9247 110.956 20.0979 111.107C20.2194 111.179 20.3544 111.226 20.4946 111.243C20.6347 111.261 20.7771 111.25 20.9127 111.21C21.3316 111.052 21.7602 110.921 22.1957 110.817C22.3175 110.817 23.6848 110.574 23.6754 110.62C23.8567 108.735 24.1349 106.861 24.5089 105.005C25.4989 100.784 27.3584 96.8149 29.9689 93.3521C32.6913 89.6904 36.4346 86.9131 40.7296 85.3684C45.2156 83.8053 49.5798 84.0206 53.2604 84.1329C55.1334 84.1891 56.8566 84.2827 58.4768 84.2265C60.0547 84.1734 61.6233 83.9634 63.1595 83.5994C66.5222 82.6977 69.8049 81.5207 72.9743 80.0802C76.5944 78.4822 80.3571 77.2287 84.2126 76.3364C88.2592 75.4975 92.4152 75.3204 96.5186 75.8123C100.621 76.2736 104.634 77.3298 108.431 78.9477C112.3 80.5362 115.882 82.7496 119.033 85.4994C124.848 90.6225 128.863 97.4763 130.486 105.051" fill="#F87C56"/>
<path d="M120.512 114.514C121.168 114.514 121.833 114.514 121.824 114.42C121.685 106.173 118.426 98.2839 112.702 92.3411C108.047 87.7225 102.021 84.7344 95.5259 83.824C92.2904 83.3731 89.0012 83.4871 85.8047 84.1609C82.4582 84.9327 79.2074 86.0721 76.1116 87.5584C72.5628 89.2356 68.8863 90.6283 65.1168 91.7234C63.0581 92.2418 60.9532 92.5553 58.8327 92.6594C56.7536 92.7717 54.8056 92.7155 52.9607 92.6594C49.2895 92.5471 46.0772 92.5564 43.5392 93.5111C40.8394 94.5132 38.4832 96.267 36.7494 98.5652C33.929 102.344 32.2988 106.876 32.0667 111.584C31.975 113.232 32.0095 114.884 32.1697 116.526C32.6848 121.983 34.305 127.514 36.2062 133.158C36.253 133.289 37.5454 132.924 37.6672 132.905C38.2981 132.812 38.9423 132.88 39.5402 133.102C40.252 133.364 40.8514 133.926 41.5725 134.169C42.2936 134.412 42.9585 134.581 43.6609 134.862C44.1157 135.095 44.6124 135.235 45.1219 135.273C45.5845 135.204 46.0548 135.204 46.5174 135.273C46.3869 134.555 46.2931 133.83 46.2364 133.102C45.6274 127.336 46.8286 121.523 49.6735 116.47C52.5692 111.596 56.774 107.63 61.8109 105.023C66.6898 102.464 72.0925 101.062 77.6007 100.924C83.1162 100.744 88.5955 101.877 93.5873 104.228C98.7343 106.601 103.123 110.353 106.268 115.066C108.001 117.722 109.206 120.687 109.817 123.799C109.892 124.126 110.95 124.154 111.157 124.173C111.437 124.251 111.733 124.258 112.017 124.195C112.301 124.131 112.565 123.998 112.786 123.808C113.414 123.162 113.264 121.936 114.013 121.393C114.762 120.85 115.23 120.626 115.483 119.699C115.58 119.112 115.734 118.535 115.942 117.977C116.186 117.472 116.663 117.228 116.879 116.639C116.973 116.259 117.101 115.89 117.263 115.534C117.494 115.197 117.806 114.924 118.172 114.741C118.537 114.557 118.943 114.47 119.351 114.486C119.389 114.476 119.941 114.495 120.512 114.514Z" fill="#F87C56"/>
</g>
<defs>
<clipPath id="clip0_37_72">
<rect width="530" height="140" fill="white"/>
</clipPath>
</defs>
</svg>
